# xmcd CD database file
#
# Track frame offsets:
#	150
#	24862
#	55515
#	76090
#	107762
#	138727
#	161340
#	186747
#	214615
#	243975
#
# Disc length: 3593 seconds
#
# Revision: 0
# Processed by: cddbd v1.5.2PL0 Copyright (c) Steve Scherf et al.
# Submitted via: CDex 1.70beta2
#
DISCID=7c0e070a
DTITLE=Frank Haunschild and Vitaliy Zolotov - Night Train
DYEAR=2012
DGENRE=Jazz
TTITLE0=G-Punkt
TTITLE1=Die Abenteuer des Katers Vasiliy Gemütlich und seiner Freunde
TTITLE2=Here Comes the Sun
TTITLE3=Nachtzug
TTITLE4=Vals Z
TTITLE5=Say Goodbye
TTITLE6=Doma
TTITLE7=Come Together
TTITLE8=Montescudaio
TTITLE9=Music für an Untitled Movie
EXTD=YEAR: 2012
EXTT0=
EXTT1=
EXTT2=
EXTT3=
EXTT4=
EXTT5=
EXTT6=
EXTT7=
EXTT8=
EXTT9=
PLAYORDER=
